<svg width="128" height="55" viewBox="0 0 128 55" fill="none" xmlns="http://www.w3.org/2000/svg">
<g clip-path="url(#clip0_76_423)">
<path d="M15.4872 38.0492C12.6784 38.0492 10.1303 37.5482 7.84312 36.5464C5.59603 35.5447 3.81042 34.082 2.48625 32.1585C1.2022 30.235 0.560181 27.9308 0.560181 25.2459C0.560181 22.561 1.18214 20.2368 2.42606 18.2732C3.71011 16.3097 5.47565 14.7869 7.72274 13.7049C10.0099 12.6229 12.5981 12.082 15.4872 12.082C16.3298 12.082 17.1324 12.1421 17.8948 12.2623C18.6973 12.3825 19.4597 12.5428 20.182 12.7432L34.2062 12.8033V18.3934C32.2801 18.4335 30.3339 18.173 28.3678 17.612C26.4417 17.0109 24.7363 16.3898 23.2517 15.7486L23.0711 15.388C24.4354 16.0692 25.6592 16.9108 26.7426 17.9126C27.8662 18.8743 28.749 19.9763 29.391 21.2186C30.033 22.4608 30.354 23.8634 30.354 25.4262C30.354 28.071 29.712 30.3351 28.428 32.2186C27.184 34.1021 25.4385 35.5447 23.1915 36.5464C20.9845 37.5482 18.4164 38.0492 15.4872 38.0492ZM25.1175 54.8798V53.4973C25.1175 51.5338 24.5357 50.1513 23.372 49.3497C22.2084 48.5482 20.5832 48.1475 18.4967 48.1475H10.3711C8.76604 48.1475 7.38168 48.0072 6.218 47.7268C5.09447 47.4863 4.19163 47.1055 3.50947 46.5847C2.82732 46.1038 2.32574 45.5229 2.00473 44.8415C1.68372 44.2005 1.52321 43.4791 1.52321 42.6776C1.52321 41.0748 2.00473 39.8726 2.96776 39.071C3.97091 38.2695 5.27504 37.7486 6.88009 37.5082C8.52528 37.2678 10.2507 37.2278 12.0564 37.388L15.4872 38.0492C13.1197 38.1294 11.314 38.3497 10.0701 38.7104C8.86634 39.0311 8.26445 39.6923 8.26445 40.694C8.26445 41.2951 8.5052 41.7759 8.98672 42.1366C9.46824 42.4973 10.1504 42.6776 11.0332 42.6776H19.5801C22.0278 42.6776 24.1746 42.958 26.0204 43.5191C27.8662 44.1202 29.2907 45.1021 30.2938 46.4645C31.3372 47.8671 31.8588 49.7705 31.8588 52.1749V54.8798H25.1175ZM15.4872 32.8197C17.0922 32.8197 18.5167 32.5191 19.7607 31.918C21.0046 31.3169 21.9877 30.4553 22.7099 29.3333C23.4322 28.2113 23.7934 26.8488 23.7934 25.2459C23.7934 23.643 23.4322 22.2605 22.7099 21.0984C21.9877 19.9362 21.0046 19.0546 19.7607 18.4536C18.5167 17.8525 17.0922 17.5519 15.4872 17.5519C13.9223 17.5519 12.4978 17.8525 11.2137 18.4536C9.96983 19.0546 8.98672 19.9362 8.26445 21.0984C7.54217 22.2204 7.18103 23.6029 7.18103 25.2459C7.18103 26.8488 7.54217 28.2113 8.26445 29.3333C8.98672 30.4553 9.96983 31.3169 11.2137 31.918C12.4576 32.5191 13.8821 32.8197 15.4872 32.8197ZM52.5766 43.3388C49.8482 43.3388 47.3401 42.6776 45.0529 41.3552C42.806 40.0328 41.0004 38.2094 39.6359 35.8852C38.3117 33.5208 37.6496 30.8159 37.6496 27.7705C37.6496 24.6448 38.3318 21.9198 39.696 19.5956C41.0605 17.2313 42.9063 15.388 45.2335 14.0656C47.561 12.7432 50.169 12.082 53.0581 12.082C56.2683 12.082 58.8165 12.7832 60.7022 14.1858C62.5882 15.5884 63.9326 17.4718 64.7349 19.8361C65.5375 22.2004 65.9387 24.8452 65.9387 27.7705C65.9387 29.4135 65.6979 31.1567 65.2164 33C64.7349 34.8033 63.9726 36.4863 62.9292 38.0492C61.9262 39.612 60.562 40.8944 58.8363 41.8962C57.151 42.8579 55.0646 43.3388 52.5766 43.3388ZM54.6231 37.8087C56.8702 37.8087 58.7761 37.388 60.3411 36.5464C61.9463 35.6649 63.1501 34.4628 63.9524 32.9399C64.7951 31.417 65.2164 29.694 65.2164 27.7705C65.2164 25.6466 64.7951 23.8433 63.9524 22.3607C63.1098 20.8379 61.906 19.6758 60.3411 18.8743C58.7761 18.0328 56.8702 17.612 54.6231 17.612C51.4131 17.612 48.9252 18.5537 47.1596 20.4372C45.3942 22.3206 44.5112 24.765 44.5112 27.7705C44.5112 29.734 44.9325 31.4771 45.7752 33C46.6582 34.5229 47.862 35.7049 49.3866 36.5464C50.9115 37.388 52.657 37.8087 54.6231 37.8087ZM65.2164 12.7432H71.9577V42.6776H65.6979C65.6979 42.6776 65.6579 42.2968 65.5776 41.5355C65.4975 40.7742 65.4172 39.8525 65.3368 38.7705C65.2568 37.6485 65.2164 36.5864 65.2164 35.5847V12.7432ZM87.1263 0.0601044V6.4918H79.1211V0.0601044H87.1263ZM79.723 12.7432H86.4642V42.6776H79.723V12.7432ZM107.829 43.3388C105.1 43.3388 102.592 42.6776 100.305 41.3552C98.058 40.0328 96.2523 38.2094 94.8881 35.8852C93.5639 33.5208 92.9018 30.8159 92.9018 27.7705C92.9018 24.6448 93.5841 21.9198 94.9483 19.5956C96.3125 17.2313 98.1585 15.388 100.486 14.0656C102.813 12.7432 105.421 12.082 108.31 12.082C111.521 12.082 114.068 12.7832 115.954 14.1858C117.84 15.5884 119.185 17.4718 119.987 19.8361C120.79 22.2004 121.191 24.8452 121.191 27.7705C121.191 29.4135 120.95 31.1567 120.469 33C119.987 34.8033 119.225 36.4863 118.181 38.0492C117.178 39.612 115.814 40.8944 114.089 41.8962C112.403 42.8579 110.317 43.3388 107.829 43.3388ZM109.875 37.8087C112.122 37.8087 114.028 37.388 115.593 36.5464C117.198 35.6649 118.402 34.4628 119.205 32.9399C120.047 31.417 120.469 29.694 120.469 27.7705C120.469 25.6466 120.047 23.8433 119.205 22.3607C118.362 20.8379 117.158 19.6758 115.593 18.8743C114.028 18.0328 112.122 17.612 109.875 17.612C106.665 17.612 104.177 18.5537 102.412 20.4372C100.646 22.3206 99.7634 24.765 99.7634 27.7705C99.7634 29.734 100.185 31.4771 101.027 33C101.91 34.5229 103.114 35.7049 104.639 36.5464C106.164 37.388 107.909 37.8087 109.875 37.8087ZM120.469 12.7432H127.21V42.6776H120.95C120.95 42.6776 120.91 42.2968 120.83 41.5355C120.749 40.7742 120.669 39.8525 120.589 38.7705C120.509 37.6485 120.469 36.5864 120.469 35.5847V12.7432Z" fill="white"/>
</g>
<defs>
<clipPath id="clip0_76_423">
<rect width="127" height="55" fill="white" transform="translate(0.5)"/>
</clipPath>
</defs>
</svg>
